<svg xmlns="http://www.w3.org/2000/svg" version="1.1" xmlns:xlink="http://www.w3.org/1999/xlink" xmlns:svgjs="http://svgjs.dev/svgjs" width="3000" height="2500" preserveAspectRatio="none" viewBox="0 0 3000 2500"><g mask="url(&quot;#SvgjsMask1173&quot;)" fill="none"><rect width="3000" height="2500" x="0" y="0" fill="rgba(24, 64, 99, 1)"></rect><path d="M0,1149.207C215.302,1137.041,406.149,1030.723,590.461,918.776C779.084,804.211,994.733,696.771,1080.019,493.228C1164.672,291.196,1072.329,67.101,1037.965,-149.237C1004.148,-362.131,1002.704,-585.378,880.485,-762.944C751.095,-950.928,558.413,-1092.001,341.1,-1161.679C120.809,-1232.312,-121.898,-1234.298,-338.814,-1153.894C-548.456,-1076.186,-681.66,-886.09,-836.781,-725.075C-1001.139,-554.472,-1255.823,-419.37,-1274,-183.174C-1292.247,53.928,-1038.995,213.725,-925.094,422.476C-821.515,612.31,-805.018,854.427,-634.962,988.019C-459.695,1125.705,-222.526,1161.781,0,1149.207" fill="#102a40"></path><path d="M3000 3754.127C3234.047 3767.3900000000003 3434.364 3609.109 3636.665 3490.669 3847.5209999999997 3367.2200000000003 4094.2290000000003 3268.165 4203.404 3049.576 4313.619 2828.904 4249.749 2569.475 4218.994 2324.735 4187.702 2075.725 4185.933 1804.453 4022.952 1613.607 3859.634 1422.367 3586.437 1393.582 3350.183 1307.387 3096.112 1214.692 2843.884 1008.5039999999999 2585.771 1089.264 2327.569 1170.052 2230.468 1478.315 2081.691 1704.281 1952.232 1900.906 1790.758 2088.843 1773.083 2323.596 1755.87 2552.221 1872.124 2764.199 1986.9470000000001 2962.646 2093.0119999999997 3145.956 2241.19 3290.6620000000003 2408.078 3421.049 2590.172 3563.316 2769.29 3741.053 3000 3754.127" fill="#205686"></path></g><defs><mask id="SvgjsMask1173"><rect width="3000" height="2500" fill="#ffffff"></rect></mask></defs></svg>