<svg xmlns="http://www.w3.org/2000/svg" version="1.1" xmlns:xlink="http://www.w3.org/1999/xlink" xmlns:svgjs="http://svgjs.dev/svgjs" width="1950" height="1024" preserveAspectRatio="none" viewBox="0 0 1950 1024"><g mask="url(&quot;#SvgjsMask1118&quot;)" fill="none"><rect width="1950" height="1024" x="0" y="0" fill="rgba(29, 143, 242, 1)"></rect><path d="M0,708.57C129.952,697.623,214.168,573.604,329.449,512.632C459.039,444.092,653.671,459.597,718.932,328.325C783.8,197.845,661.097,51.723,629.284,-90.477C600.444,-219.386,636.638,-377.723,540.668,-468.492C444.488,-559.46,286.323,-505.839,157.568,-536.629C37.686,-565.298,-65.609,-647.606,-188.782,-642.933C-331.595,-637.515,-485.332,-609.121,-586.717,-508.393C-690.059,-405.722,-719.543,-250.273,-730.235,-104.992C-740.442,33.698,-711.616,172.419,-645.838,294.944C-582.678,412.593,-479.606,499.295,-367.16,571.311C-254.858,643.235,-132.889,719.764,0,708.57" fill="#0a5ea7"></path><path d="M1950 1586.5430000000001C2052.177 1563.029 2147.523 1525.035 2232.739 1463.951 2314.543 1405.313 2369.796 1324.046 2429.373 1242.922 2504.522 1140.593 2628.58 1053.564 2627.3559999999998 926.611 2626.131 799.572 2520.242 696.001 2423.309 613.876 2334.99 539.049 2215.949 527.821 2107.837 486.456 1988.346 440.73699999999997 1881.129 340.17600000000004 1754.431 357.952 1624.129 376.23299999999995 1505.267 467.288 1438.084 580.422 1374.377 687.704 1421.4969999999998 821.969 1405.408 945.699 1389.612 1067.173 1315.405 1181.5430000000001 1344.441 1300.549 1375.717 1428.737 1449.804 1560.321 1569.115 1616.6689999999999 1686.657 1672.182 1823.32 1615.696 1950 1586.5430000000001" fill="#77bbf7"></path></g><defs><mask id="SvgjsMask1118"><rect width="1950" height="1024" fill="#ffffff"></rect></mask></defs></svg>